<svg xmlns="http://www.w3.org/2000/svg" viewBox="0 0 154.46 33.1"><defs><style>.cls-1{fill:#fff;stroke:#575756;stroke-miterlimit:10;}.cls-2{fill:#1d1d1b;}</style></defs><g id="Слой_2" data-name="Слой 2"><g id="Слой_2-2" data-name="Слой 2"><circle class="cls-1" cx="3.66" cy="29.44" r="3.16"/><circle class="cls-1" cx="19.28" cy="29.44" r="3.16"/><circle class="cls-2" cx="28.19" cy="29.44" r="3.58"/><circle class="cls-1" cx="49.04" cy="29.18" r="3.16"/><circle class="cls-2" cx="57.96" cy="29.18" r="3.58"/><circle class="cls-2" cx="49.04" cy="20.38" r="3.58"/><circle class="cls-2" cx="49.04" cy="11.7" r="3.58"/><circle class="cls-1" cx="80.05" cy="29.09" r="3.16"/><circle class="cls-2" cx="88.89" cy="29.09" r="3.5"/><circle class="cls-2" cx="80.05" cy="20.54" r="3.58"/><circle class="cls-2" cx="80.05" cy="11.87" r="3.58"/><circle class="cls-1" cx="97.72" cy="29.09" r="3.16"/><circle class="cls-1" cx="106.4" cy="29.09" r="3.16"/><circle class="cls-1" cx="124.41" cy="28.88" r="3.16"/><circle class="cls-2" cx="133.29" cy="28.88" r="3.5"/><circle class="cls-2" cx="124.41" cy="20.33" r="3.58"/><circle class="cls-2" cx="124.41" cy="11.65" r="3.58"/><circle class="cls-1" cx="142.12" cy="28.88" r="3.16"/><circle class="cls-1" cx="150.8" cy="28.88" r="3.16"/><circle class="cls-1" cx="124.41" cy="3.66" r="3.16"/></g></g></svg>