<svg xmlns="http://www.w3.org/2000/svg" viewBox="0 0 163.59 21.44"><defs><style>.cls-1{fill:#1d1d1b;}.cls-2{fill:none;stroke:#575756;stroke-miterlimit:10;}.cls-3{fill:#3c3c3b;}</style></defs><g id="Слой_2" data-name="Слой 2"><g id="Слой_2-2" data-name="Слой 2"><circle class="cls-1" cx="67.01" cy="10.72" r="2.51"/><rect class="cls-2" x="0.5" y="0.5" width="20.44" height="20.44"/><circle class="cls-2" cx="10.72" cy="10.72" r="8.89"/><circle class="cls-2" cx="96.09" cy="10.72" r="8.89"/><rect class="cls-2" x="28.75" y="0.5" width="20.44" height="20.44"/><rect class="cls-2" x="85.83" y="0.5" width="20.44" height="20.44"/><rect class="cls-2" x="56.79" y="0.5" width="20.44" height="20.44"/><polygon class="cls-3" points="43.81 10.73 43.88 10.62 43.75 10.62 38.97 2.33 34.18 10.62 34.07 10.62 34.13 10.72 34.06 10.83 34.19 10.83 38.97 19.11 43.76 10.83 43.87 10.83 43.81 10.73"/><polygon class="cls-2" points="100.53 10.73 100.53 10.73 100.47 10.62 95.68 2.33 90.9 10.62 90.84 10.72 90.84 10.72 90.84 10.72 90.91 10.83 95.69 19.11 100.47 10.83 100.47 10.83 100.53 10.73"/><rect class="cls-2" x="114.39" y="0.5" width="20.44" height="20.44"/><rect class="cls-2" x="142.65" y="0.5" width="20.44" height="20.44"/><polygon class="cls-2" points="157.71 10.73 157.71 10.73 157.65 10.62 152.87 2.33 148.08 10.62 148.03 10.72 148.03 10.72 148.03 10.72 148.09 10.83 152.87 19.11 157.66 10.83 157.66 10.83 157.71 10.73"/><circle class="cls-1" cx="152.87" cy="10.72" r="2.31"/></g></g></svg>