<svg xmlns="http://www.w3.org/2000/svg" viewBox="0 0 129.46 28.51"><defs><style>.cls-1{fill:none;stroke:#575756;stroke-miterlimit:10;}</style></defs><g id="Слой_2" data-name="Слой 2"><g id="Слой_2-2" data-name="Слой 2"><path class="cls-1" d="M.5,24.31V7.6L5.68.92,5.77.79l5.81,6.74V24.27a3.41,3.41,0,0,1-3.37,3.41l-4.28,0A3.41,3.41,0,0,1,.5,24.31Z"/><line class="cls-1" x1="5.89" y1="27.63" x2="5.85" y2="0.88"/><path class="cls-1" d="M22.09,16.3,33.9,4.48l8.39-1.06.16,0-.66,8.87L30,24.11a3.41,3.41,0,0,1-4.8,0l-3-3A3.39,3.39,0,0,1,22.09,16.3Z"/><line class="cls-1" x1="23.55" y1="22.45" x2="42.44" y2="3.52"/><path class="cls-1" d="M53,8.71H69.66l6.68,5.18.13.1-6.75,5.8H53a3.39,3.39,0,0,1-3.41-3.37c0-1.35,0-2.91,0-4.27A3.4,3.4,0,0,1,53,8.71Z"/><line class="cls-1" x1="49.63" y1="14.1" x2="76.38" y2="14.06"/><path class="cls-1" d="M99.36,4.2V20.91l-5.18,6.68-.09.13L88.28,21V4.23A3.39,3.39,0,0,1,91.65.83l4.28,0A3.4,3.4,0,0,1,99.36,4.2Z"/><line class="cls-1" x1="93.98" y1="0.88" x2="94.01" y2="27.62"/><path class="cls-1" d="M128,12.21,116.15,24l-8.39,1.07-.16,0,.66-8.88L120.1,4.4a3.39,3.39,0,0,1,4.79,0l3,3A3.41,3.41,0,0,1,128,12.21Z"/><line class="cls-1" x1="126.5" y1="6.05" x2="107.61" y2="24.99"/></g></g></svg>