<svg width="24" height="24" viewBox="0 0 24 24" fill="none" xmlns="http://www.w3.org/2000/svg">
<path d="M23.389 0.467074C23.1431 0.236922 22.8453 0.0846646 22.5272 0.0264864C22.2092 -0.0316919 21.8828 0.00638271 21.5828 0.136663L1.12746 9.00879C0.768675 9.15975 0.464772 9.43678 0.262545 9.79721C0.0603175 10.1576 -0.0290205 10.5815 0.00828714 11.0035C0.0415715 11.4253 0.197788 11.8239 0.453509 12.1394C0.709231 12.4549 1.05068 12.6704 1.42664 12.7534L6.62359 13.8915V21.0626C6.62341 21.4506 6.72758 21.8299 6.92289 22.1523C7.11821 22.4748 7.39585 22.7259 7.7206 22.8738C7.93553 22.9693 8.16487 23.0191 8.39654 23.0206C8.6294 23.0215 8.86008 22.9711 9.07509 22.8724C9.29009 22.7736 9.4851 22.6285 9.64868 22.4455L12.5297 19.276L16.8845 23.5101C17.206 23.8233 17.6194 23.9972 18.048 23.9996C18.2365 24.0039 18.4242 23.9708 18.6021 23.9017C18.8945 23.7996 19.1577 23.6148 19.3656 23.3659C19.5736 23.1169 19.7191 22.8123 19.7877 22.4822L23.9541 2.38835C24.027 2.04162 24.0128 1.67953 23.9133 1.34101C23.8137 1.00249 23.6324 0.700347 23.389 0.467074ZM7.29953 12.0437L1.78123 10.8322L17.2502 4.11382L7.29953 12.0437ZM8.39654 21.0626V15.2621L11.1889 17.9788L8.39654 21.0626ZM18.0591 22.0416L8.92842 13.1695L22.0815 2.68205L18.0591 22.0416Z" fill="#006BB9"/>
</svg>
